# xmcd CD database file
#
# Track frame offsets:
#	150
#	30589
#	73321
#	110407
#	153958
#	185722
#	220333
#	244333
#
# Disc length: 3746 seconds
#
# Revision: 0
# Processed by: cddbd v1.5.2PL0 Copyright (c) Steve Scherf et al.
# Submitted via: CDex 1.70beta1
#
DISCID=740ea008
DTITLE=Reg Schwager and Don Thompson - Live at Mezzetta
DYEAR=2002
DGENRE=Jazz
TTITLE0=Wonder Why
TTITLE1=In a Sentimental Mood
TTITLE2=How Deep is the Ocean
TTITLE3=Willow Weep for Me
TTITLE4=You and the Night and the Music
TTITLE5=Old Folks
TTITLE6=Gone With the Wind
TTITLE7=My Foolish Heart
EXTD=YEAR: 2002
EXTT0=
EXTT1=
EXTT2=
EXTT3=
EXTT4=
EXTT5=
EXTT6=
EXTT7=
PLAYORDER=
